PathFileType	4	(X/Y/Z)	RBDS017\RBDS017runT25.trc
DataRate	CameraRate	NumFrames	NumMarkers	Units	OrigDataRate	OrigDataStartFrame	OrigNumFrames
150.000000	150.000000	4	33	mm	150.000000	3937	4500
Frame#	Time	L.ASIS			L.Heel.Bottom			L.Heel.Lateral			L.Heel.Top			L.Iliac.Crest			L.MT1			L.MT5			L.PSIS			L.Shank.Bottom.Lateral			L.Shank.Bottom.Medial			L.Shank.Top.Lateral			L.Shank.Top.Medial			L.Thigh.Bottom.Lateral			L.Thigh.Bottom.Medial			L.Thigh.Top.Lateral			L.Thigh.Top.Medial			R.ASIS			R.ASY			R.Heel.Bottom			R.Heel.Lateral			R.Heel.Top			R.Iliac.Crest			R.MT1			R.MT5			R.PSIS			R.Shank.Bottom.Lateral			R.Shank.Bottom.Medial			R.Shank.Top.Lateral			R.Shank.Top.Medial			R.Thigh.Bottom.Lateral			R.Thigh.Bottom.Medial			R.Thigh.Top.Lateral			R.Thigh.Top.Medial			
		X1	Y1	Z1	X2	Y2	Z2	X3	Y3	Z3	X4	Y4	Z4	X5	Y5	Z5	X6	Y6	Z6	X7	Y7	Z7	X8	Y8	Z8	X9	Y9	Z9	X10	Y10	Z10	X11	Y11	Z11	X12	Y12	Z12	X13	Y13	Z13	X14	Y14	Z14	X15	Y15	Z15	X16	Y16	Z16	X17	Y17	Z17	X18	Y18	Z18	X19	Y19	Z19	X20	Y20	Z20	X21	Y21	Z21	X22	Y22	Z22	X23	Y23	Z23	X24	Y24	Z24	X25	Y25	Z25	X26	Y26	Z26	X27	Y27	Z27	X28	Y28	Z28	X29	Y29	Z29	X30	Y30	Z30	X31	Y31	Z31	X32	Y32	Z32	X33	Y33	Z33	

3938	26.24666666666667	2181.97345031352	1050.067643063089	864.5829378039082	1856.626864479135	277.6100574957229	922.2300576247596	1880.809134210599	277.5752892655486	882.8356111099149	1893.925583688475	304.6696409694032	921.2098773943104	2122.370323402708	1147.185473500315	824.0863110027562	2034.857085747532	133.0818840232549	934.0596287592583	1986.400178127069	151.5874140876096	831.9706761751403	2010.721831027893	1126.552033343762	948.3833179018163	2021.070697702917	344.6721408740121	856.8022951798653	1991.275216050036	374.4358104853312	892.9039473485433	2069.789228383848	407.5823629745869	845.2240927509401	2040.950543573945	437.4307393899978	879.7455462521649	2251.340299886478	708.5964027150019	814.9745871094251	2195.505551128055	672.699566508613	844.3167188321073	2186.562163554259	797.5825516179198	808.143522663825	2134.367574949936	764.6717483349236	837.9286184159095	2168.310255317666	1043.406777400495	1149.484651022728	1902.730614388493	79.96501053005926	1080.33362531012	1706.574256476993	110.1976841444514	1038.486988391342	1730.08163169959	117.8921449022179	1083.637750160867	1731.114822430274	149.6648028860742	1046.903466045541	2126.64911232747	1129.201598523033	1183.059037756596	1917.685043799001	51.07040203214541	1032.563287806805	1864.014335909428	41.88262746165397	1138.11141142526	2009.800878406055	1125.117204286337	1050.022740509335	1832.165376091561	234.4943107043858	1111.16022365297	1802.01381766264	255.8093586215351	1075.449090959933	1865.95242672275	310.8765036500266	1126.995260326083	1830.015691619036	330.1381086783455	1092.086576373104	2029.669865877965	663.7617717254971	1154.703396464731	1972.925331973315	667.2043801496884	1109.116599053319	2023.801129590945	772.532147009336	1165.755653644954	1970.44338115648	776.490385467579	1121.718793255798	
3939	26.25333333333333	2183.527512412067	1056.78004520778	864.3737465406514	1874.840510107426	257.2602785328576	924.2337318640185	1898.753403240043	258.5044979013215	884.6765853093996	1910.376685533309	286.5443730340042	922.8291167082	2124.066987229322	1153.834713119718	823.1704111402549	2061.610018374924	123.8964799990238	935.3016990291432	2011.362779817107	138.9651617629205	833.5237370738015	2012.157836272197	1132.324143635667	947.960125803923	2034.631072526451	334.3078509738477	858.0140266078407	2003.320002502732	362.154204753852	894.3620949458652	2079.315372702504	400.1010028932259	846.225526544308	2048.988380529931	428.0542402516691	881.0287511492288	2251.562487919964	713.8761045499449	815.4214558367034	2195.520464256917	678.1982219671067	844.6324668421311	2187.033468960617	803.0074009987006	808.1853975001742	2134.707647849357	770.3744085007676	838.0188718482208	2170.07389607583	1048.360368859273	1148.236754749353	1889.880991085898	80.90967808993705	1081.259623665358	1695.159718021704	120.3878808884091	1039.559692017197	1719.021006461116	126.4764893627616	1084.774108044474	1721.366057615676	158.5966843038346	1048.375107771251	2130.175042767881	1135.822644122909	1182.15438092349	1902.951671557	51.77850541295039	1033.05144961912	1849.241143058292	43.64979433054398	1138.554082326894	2011.68557508134	1130.504502667078	1050.079664487167	1821.376378767226	241.0912127334072	1112.38994214318	1791.733941731685	261.9813483042893	1076.027511796696	1854.982435679989	317.6718505889937	1127.689344672543	1819.416827658636	336.5144787757484	1092.178989433713	2022.232827978235	670.0863480525506	1154.370141035694	1966.063563907037	674.9185953581078	1108.258047890812	2019.126392949144	778.9434909594295	1164.999110424955	1966.305065656826	784.2334204583232	1120.399795989103	
3940	26.26	2185.084711370971	1063.375559618727	864.1107656389402	1894.226738064105	236.9768584469032	926.3937253720811	1917.744884453269	239.5157700978886	886.6339302339221	1927.831095150757	268.3917976346424	924.5596794295717	2125.303121862057	1160.492719134994	822.2621201926769	2088.928566834683	115.4636526629233	936.3398557087281	2036.996017640048	126.9634565176211	834.9689926552319	2013.666788798256	1137.912804206617	947.5385629774698	2048.513029842622	323.9015987868381	859.2024148999124	2015.915890405233	349.6943890463968	895.9132091427522	2088.948670591216	392.3709162339237	847.2164780887283	2057.339793390468	418.3029440735316	882.4124660316822	2251.126668397691	718.495894475438	815.9160729290875	2194.792190561238	683.1771920840281	845.0167227786432	2187.05851542561	807.9317273394688	808.3171716015059	2134.532874078433	775.7029679207147	838.2322402470332	2171.920309372161	1053.215044771734	1146.964453620904	1877.342248484874	82.05090148380384	1082.236695096367	1684.499660093106	130.950415475697	1040.702113902074	1708.639737080555	135.4200644678018	1085.964541193614	1712.402513587786	167.7924539483788	1049.891738012664	2133.781252144379	1142.403987457629	1181.208855211694	1888.644260085024	52.69657049485961	1033.639399597772	1834.799774612397	45.77974376679979	1139.069657233367	2013.621694464987	1135.733378163081	1050.094016137731	1811.314587173894	247.7540856390602	1113.673229084928	1782.173294148445	268.2146069029721	1076.660208987991	1844.759196889429	324.5292835714624	1128.41231786054	1809.582258497064	342.9467791899472	1092.291738466005	2015.505827998555	676.3217287533357	1154.087684884521	1959.865113317722	682.4561402914289	1107.530507631897	2014.982612298332	785.2198219688339	1164.328155763949	1962.67015016334	791.738985692292	1119.216802435212	
3941	26.26666666666667	2186.603431384871	1069.748734535344	863.7915128417753	1914.768438369471	216.9425728455578	928.6663572262603	1937.760906223509	220.7776665251036	888.6629442240873	1946.2766365504	250.3825736955146	926.3683969747208	2126.107179400466	1167.107780355536	821.41570416847	2116.725095923125	107.9243629107506	937.1499679392506	2063.244055186332	115.7133670185748	836.2758278737509	2015.23415935932	1143.255847307445	947.1224809446218	2062.695814830397	313.5451909603236	860.3442135019621	2029.06060583082	337.1780703134992	897.5299272984871	2098.695830806066	384.4512891252787	848.1798457369865	2066.028600734487	408.2683873648101	883.8753981028862	2250.03166883559	722.4018133269526	816.4481714052935	2193.331177712107	687.5761984612878	845.4631334225647	2186.628513304724	812.2930830708699	808.5358581972255	2133.844301801078	780.5844058581724	838.5600512274967	2173.805658569402	1057.902439729762	1145.705406494362	1865.063785020919	83.43788853415529	1083.268765822341	1674.589606996608	141.8283247140721	1041.867915832885	1698.906259213062	144.6910585195947	1087.171959801339	1704.192281388106	177.201552348523	1051.418641788843	2137.404717305216	1148.826709212176	1180.212593099028	1874.75198806148	53.8647203796161	1034.333871728715	1820.650512502882	48.32359758783382	1139.637495572254	2015.577599796503	1140.759466243333	1050.055031618702	1801.95321198581	254.4251545809135	1114.987329800668	1773.293432894147	274.4695809750772	1077.340531202723	1835.285798529177	331.3782439278917	1129.150172413754	1800.502463260082	349.383148159455	1092.431587566499	2009.53130041545	682.3764567097305	1153.849101961268	1954.35037675673	689.7197642824808	1106.938859271507	2011.389245124177	791.286758598842	1163.750516306824	1959.535065312125	798.926996870892	1118.19284442031	
